<svg width="198" height="55" viewBox="0 0 198 55" fill="none" xmlns="http://www.w3.org/2000/svg">
<path d="M11.04 35C11.6373 35.1707 12.4053 35.2987 13.344 35.384C14.2827 35.4267 15.1787 35.448 16.032 35.448C17.7387 35.448 19.1467 35.1067 20.256 34.424C21.408 33.6987 21.984 32.5893 21.984 31.096C21.984 29.688 21.5147 28.6853 20.576 28.088C19.6373 27.4907 18.208 27.192 16.288 27.192H11.04V35ZM11.04 19.384H15.712C17.5467 19.384 18.8693 19.0427 19.68 18.36C20.5333 17.6773 20.96 16.6747 20.96 15.352C20.96 14.2 20.4693 13.2827 19.488 12.6C18.5493 11.9173 17.12 11.576 15.2 11.576C14.56 11.576 13.8133 11.5973 12.96 11.64C12.1493 11.6827 11.5093 11.7467 11.04 11.832V19.384ZM15.2 44.024C14.4747 44.024 13.6213 44.0027 12.64 43.96C11.6587 43.9173 10.6347 43.832 9.568 43.704C8.544 43.576 7.52 43.4053 6.496 43.192C5.472 43.0213 4.53333 42.7653 3.68 42.424C1.33333 41.528 0.16 39.9707 0.16 37.752V7.864C0.16 6.968 0.394667 6.28533 0.864 5.816C1.376 5.304 2.05867 4.89866 2.912 4.6C4.36267 4.088 6.176 3.72533 8.352 3.512C10.528 3.256 12.768 3.128 15.072 3.128C20.5333 3.128 24.736 4.04533 27.68 5.88C30.624 7.71467 32.096 10.552 32.096 14.392C32.096 16.312 31.5413 17.976 30.432 19.384C29.3227 20.7493 27.8293 21.752 25.952 22.392C28.0853 22.9893 29.856 24.0773 31.264 25.656C32.7147 27.2347 33.44 29.2187 33.44 31.608C33.44 35.832 31.8613 38.968 28.704 41.016C25.5893 43.0213 21.088 44.024 15.2 44.024ZM70.9575 27.448C70.9575 30.0933 70.5522 32.4613 69.7415 34.552C68.9308 36.6 67.7788 38.328 66.2855 39.736C64.8348 41.144 63.0855 42.2107 61.0375 42.936C58.9895 43.6613 56.7068 44.024 54.1895 44.024C51.6722 44.024 49.3895 43.64 47.3415 42.872C45.2935 42.104 43.5228 41.016 42.0295 39.608C40.5788 38.1573 39.4482 36.408 38.6375 34.36C37.8268 32.312 37.4215 30.008 37.4215 27.448C37.4215 24.9307 37.8268 22.648 38.6375 20.6C39.4482 18.552 40.5788 16.824 42.0295 15.416C43.5228 13.9653 45.2935 12.856 47.3415 12.088C49.3895 11.32 51.6722 10.936 54.1895 10.936C56.7068 10.936 58.9895 11.3413 61.0375 12.152C63.0855 12.92 64.8348 14.0293 66.2855 15.48C67.7788 16.888 68.9308 18.616 69.7415 20.664C70.5522 22.712 70.9575 24.9733 70.9575 27.448ZM48.5575 27.448C48.5575 30.0507 49.0482 32.056 50.0295 33.464C51.0535 34.8293 52.4615 35.512 54.2535 35.512C56.0455 35.512 57.4108 34.808 58.3495 33.4C59.3308 31.992 59.8215 30.008 59.8215 27.448C59.8215 24.888 59.3308 22.9253 58.3495 21.56C57.3682 20.152 55.9815 19.448 54.1895 19.448C52.3975 19.448 51.0108 20.152 50.0295 21.56C49.0482 22.9253 48.5575 24.888 48.5575 27.448ZM108.458 27.448C108.458 30.0933 108.052 32.4613 107.242 34.552C106.431 36.6 105.279 38.328 103.786 39.736C102.335 41.144 100.586 42.2107 98.5375 42.936C96.4895 43.6613 94.2068 44.024 91.6895 44.024C89.1722 44.024 86.8895 43.64 84.8415 42.872C82.7935 42.104 81.0228 41.016 79.5295 39.608C78.0788 38.1573 76.9482 36.408 76.1375 34.36C75.3268 32.312 74.9215 30.008 74.9215 27.448C74.9215 24.9307 75.3268 22.648 76.1375 20.6C76.9482 18.552 78.0788 16.824 79.5295 15.416C81.0228 13.9653 82.7935 12.856 84.8415 12.088C86.8895 11.32 89.1722 10.936 91.6895 10.936C94.2068 10.936 96.4895 11.3413 98.5375 12.152C100.586 12.92 102.335 14.0293 103.786 15.48C105.279 16.888 106.431 18.616 107.242 20.664C108.052 22.712 108.458 24.9733 108.458 27.448ZM86.0575 27.448C86.0575 30.0507 86.5482 32.056 87.5295 33.464C88.5535 34.8293 89.9615 35.512 91.7535 35.512C93.5455 35.512 94.9108 34.808 95.8495 33.4C96.8308 31.992 97.3215 30.008 97.3215 27.448C97.3215 24.888 96.8308 22.9253 95.8495 21.56C94.8682 20.152 93.4815 19.448 91.6895 19.448C89.8975 19.448 88.5108 20.152 87.5295 21.56C86.5482 22.9253 86.0575 24.888 86.0575 27.448ZM144.166 37.368C143.952 39.3733 143.355 40.9093 142.374 41.976C141.435 43.0427 140.048 43.576 138.214 43.576C136.848 43.576 135.632 43.256 134.566 42.616C133.499 41.9333 132.347 40.8027 131.11 39.224L124.774 31.288V42.936C124.304 43.0213 123.6 43.128 122.662 43.256C121.766 43.4267 120.848 43.512 119.91 43.512C118.971 43.512 118.118 43.448 117.35 43.32C116.624 43.192 116.006 42.936 115.494 42.552C114.982 42.168 114.576 41.656 114.278 41.016C114.022 40.3333 113.894 39.4587 113.894 38.392V1.336C114.363 1.208 115.046 1.08 115.942 0.952C116.88 0.781333 117.819 0.695999 118.758 0.695999C119.696 0.695999 120.528 0.759998 121.254 0.887997C122.022 1.016 122.662 1.272 123.174 1.656C123.686 2.04 124.07 2.57333 124.326 3.256C124.624 3.896 124.774 4.74933 124.774 5.816V22.712L135.782 11.448C138 11.448 139.771 11.9387 141.094 12.92C142.459 13.9013 143.142 15.1387 143.142 16.632C143.142 17.272 143.035 17.8693 142.822 18.424C142.608 18.936 142.267 19.4693 141.798 20.024C141.371 20.5787 140.795 21.176 140.07 21.816C139.387 22.4133 138.576 23.1173 137.638 23.928L133.926 27.128L144.166 37.368ZM160.338 42.936C159.868 43.0213 159.164 43.128 158.226 43.256C157.33 43.4267 156.412 43.512 155.474 43.512C154.535 43.512 153.682 43.448 152.914 43.32C152.188 43.192 151.57 42.936 151.058 42.552C150.546 42.168 150.14 41.656 149.842 41.016C149.586 40.3333 149.458 39.4587 149.458 38.392V1.272C149.927 1.18666 150.61 1.08 151.506 0.952C152.444 0.781333 153.383 0.695999 154.322 0.695999C155.26 0.695999 156.092 0.759998 156.818 0.887997C157.586 1.016 158.226 1.272 158.738 1.656C159.25 2.04 159.634 2.57333 159.89 3.256C160.188 3.896 160.338 4.74933 160.338 5.816V42.936ZM172.067 35.064C171.598 33.9973 171.086 32.8027 170.531 31.48C170.019 30.1573 169.464 28.6427 168.867 26.936C168.312 25.2293 167.715 23.288 167.075 21.112C166.478 18.8933 165.838 16.3547 165.155 13.496C165.752 12.8987 166.542 12.3867 167.523 11.96C168.547 11.4907 169.656 11.256 170.851 11.256C172.344 11.256 173.582 11.576 174.563 12.216C175.544 12.8133 176.27 13.9653 176.739 15.672L181.795 33.272H182.051C182.563 31.8213 183.054 30.2427 183.523 28.536C184.035 26.8293 184.526 25.08 184.995 23.288C185.464 21.4533 185.891 19.64 186.275 17.848C186.702 16.0133 187.064 14.2213 187.363 12.472C188.899 11.6613 190.584 11.256 192.419 11.256C193.912 11.256 195.15 11.576 196.131 12.216C197.112 12.856 197.603 13.9653 197.603 15.544C197.603 16.696 197.454 18.04 197.155 19.576C196.856 21.0693 196.451 22.6693 195.939 24.376C195.47 26.0827 194.894 27.8533 194.211 29.688C193.571 31.48 192.888 33.2507 192.163 35C191.438 36.7493 190.691 38.4133 189.923 39.992C189.155 41.528 188.408 42.9147 187.683 44.152C186.488 46.2427 185.379 47.9493 184.355 49.272C183.331 50.5947 182.35 51.6187 181.411 52.344C180.472 53.112 179.534 53.624 178.595 53.88C177.656 54.1787 176.675 54.328 175.651 54.328C173.859 54.328 172.408 53.7947 171.299 52.728C170.19 51.6613 169.528 50.2747 169.315 48.568C170.68 47.5013 172.046 46.3067 173.411 44.984C174.776 43.704 176.014 42.3813 177.123 41.016C176.398 40.8027 175.608 40.312 174.755 39.544C173.944 38.7333 173.048 37.24 172.067 35.064Z" fill="#252929"/>
</svg>
